<?xml version="1.0" encoding="UTF-8" standalone="no"?>
<svg
   xmlns:dc="http://purl.org/dc/elements/1.1/"
   xmlns:cc="http://creativecommons.org/ns#"
   xmlns:rdf="http://www.w3.org/1999/02/22-rdf-syntax-ns#"
   xmlns:svg="http://www.w3.org/2000/svg"
   xmlns="http://www.w3.org/2000/svg"
   viewBox="0 0 1122.5197 793.70081"
   height="793.70081"
   width="1122.5197"
   xml:space="preserve"
   id="svg2"
   version="1.1"><metadata
     id="metadata8"><rdf:RDF><cc:Work
         rdf:about=""><dc:format>image/svg+xml</dc:format><dc:type
           rdf:resource="http://purl.org/dc/dcmitype/StillImage" /></cc:Work></rdf:RDF></metadata><defs
     id="defs6" /><g
     transform="matrix(1.3333333,0,0,-1.3333333,0,793.7008)"
     id="g10"><path
       id="path12"
       style="fill:#000000;fill-opacity:1;fill-rule:nonzero;stroke:none"
       d="m 129.4826,444.1331 v 0 l -0.3047,-0.6091 -0.6091,-0.3048 -1.2184,-0.3044 v 0 l -7.0055,-2.2844 -3.3506,-1.3709 -3.503,-1.3705 v 0 l -4.112,-1.8275 -1.9797,-1.0661 -1.98,-1.0661 v 0 l -1.0658,-0.7614 -0.9139,-0.7617 -0.3047,-0.6092 -0.3047,-0.4569 -0.1523,-0.6092 v -0.7614 0 -0.6091 l 0.3048,-0.6095 0.3044,-0.4566 0.4569,-0.3045 0.9139,-0.6094 1.0661,-0.6092 v 0 l 1.2184,-0.6092 1.3705,-0.3047 v 0 l 3.8075,-0.9136 3.9597,-1.0661 7.615,-1.9797 v 0 l 5.0256,-1.2186 5.0258,-0.9136 5.0258,-0.457 5.0259,-0.3047 h 5.0258 l 5.0258,0.3047 5.0258,0.457 5.0259,0.9136 v 0 l 7.6147,1.523 7.4625,1.8275 7.4627,1.98 7.4625,2.2845 v 0 l 3.9597,1.0661 3.9595,1.2183 v 0 l 1.8275,0.6092 1.8277,0.9136 v 0 l 0.7617,0.6094 0.4567,0.457 0.3047,0.6089 0.1522,0.6091 -0.1522,0.6095 -0.3047,0.6091 -0.4567,0.6092 -0.6094,0.6092 v 0 l -0.7614,0.4569 -0.6092,0.3045 v 0 l -11.5747,4.7211 -5.7872,2.1325 -2.8936,0.9136 -3.0458,0.9139 v 0 l -3.3506,0.7613 -3.1983,0.6092 -3.3506,0.457 -3.5027,0.4569 -3.3506,0.1522 h -3.3505 l -3.3506,-0.1522 -3.5028,-0.3047 v 0 l -1.523,-0.1522 h -1.675 v 0 h -0.3047 -0.457 l -0.3047,0.3044 -0.1522,0.3047 v 0 0.6092 l 0.3047,0.3047 0.3044,0.1522 0.6095,0.1522 v 0 l 1.218,0.1523 v 0 l 4.5692,0.4569 4.4164,0.3045 h 4.4166 l 4.4167,-0.1523 4.4167,-0.4569 4.4166,-0.7614 4.2642,-1.0661 4.4166,-1.3706 v 0 l 4.7214,-1.6752 4.8733,-1.8275 4.7211,-2.1323 4.7212,-1.98 v 0 l 1.0661,-0.6088 1.2186,-0.7617 1.0658,-0.7614 1.0664,-0.9139 v 0 l 0.6092,-0.7614 0.4566,-0.9139 0.1522,-0.4569 v -0.4569 l -0.1522,-0.4567 -0.1522,-0.457 v 0 l -0.6092,-1.0661 -0.4569,-1.2183 -0.3044,-1.0661 -0.3048,-1.2183 -0.3047,-2.2845 -0.1522,-2.4369 v 0 l -0.9136,-6.2442 -0.9139,-6.0916 v 0 l -1.5228,-7.615 -1.6755,-7.6147 -1.0659,-3.8075 -1.0661,-3.8075 -1.2186,-3.655 -1.3705,-3.655 v 0 l -2.2845,-5.1783 -2.2844,-5.1781 -4.8736,-10.2039 v 0 l -2.8936,-6.3966 -2.7414,-6.3961 -2.5889,-6.5489 -1.0661,-3.3505 -1.0661,-3.3506 v 0 -0.6092 l -0.1522,-0.3047 -0.3048,-0.3044 v 0 l -0.1522,0.9139 v 0.9136 l 0.3044,1.8275 v 0 l 1.0664,3.9597 1.0659,3.8075 1.2183,3.9597 1.2186,3.8075 2.8933,7.6147 3.0461,7.4628 v 0 l 2.5889,6.2438 2.2848,6.3967 1.9797,6.3964 1.8275,6.5486 v 0 l 1.8277,7.3105 1.6753,7.4625 1.5228,7.3103 1.3708,7.4625 v 0 l 0.3045,2.2844 0.1525,2.2845 v 0 0.7616 l -0.1525,0.4567 -0.6092,0.3044 -0.6092,0.1525 v 0 h -0.7616 l -0.7611,-0.1525 -1.3709,-0.4566 v 0 l -8.6811,-2.8939 -8.6805,-2.5889 v 0 l -5.635,-1.5231 -5.7875,-1.5227 -5.7872,-1.0661 -5.7872,-1.0662 -5.9397,-0.7613 -5.7873,-0.457 h -5.9397 -3.0458 l -3.0458,0.3047 v 0 l -5.0258,0.6089 -5.0259,0.7617 -5.0258,1.2183 -5.0258,1.2184 v 0 l -5.7872,1.6752 -3.0462,0.7614 -3.0458,0.3047 v 0 l 1.3709,-4.1119 3.3505,-10.2042 10.3561,-30.7638 10.6608,-30.9161 5.1781,-15.2297 v 0 h 0.4569 l 0.3045,0.3045 0.4569,0.6091 v 0 l 1.3706,2.1323 1.523,2.1322 1.6753,1.8275 1.8275,1.9797 1.8278,1.6756 1.8275,1.8275 3.9594,3.1983 v 0 l 0.9139,0.9136 0.3047,0.4569 0.3044,0.457 0.1525,1.0661 -0.1525,1.218 v 0 l -0.6091,4.417 -0.457,4.4164 -0.3044,4.4166 v 4.4167 0 l 0.1522,3.5028 0.3047,3.3505 0.457,3.3506 0.6091,3.3505 0.9139,3.1983 0.9136,3.3506 1.2184,3.0458 1.523,3.1981 v 0 l 1.0661,1.8277 1.0659,1.5228 1.3708,1.5231 1.3705,1.523 1.5231,1.2184 1.5231,1.0661 1.8275,0.7614 1.98,0.7616 v 0 l 1.9797,0.3045 1.8278,0.1522 1.6749,-0.1522 1.6753,-0.457 1.5231,-0.7614 1.3705,-1.0661 1.3709,-1.2183 1.0658,-1.5231 v 0 l 0.9139,-1.5227 0.6091,-1.5231 0.6095,-1.523 0.4567,-1.5231 v 0 l 0.4569,-2.5889 0.3044,-2.5891 0.3048,-2.4367 0.1522,-2.4367 -0.1522,-2.5891 -0.1523,-2.2845 -0.1525,-2.4366 -0.4569,-2.4367 -0.6089,-2.2844 -0.6092,-2.2848 -0.7616,-2.2844 -0.9139,-2.2844 -1.0658,-2.2845 -1.2187,-2.2844 -1.3705,-2.1322 -1.3706,-2.1323 v 0 l -1.8275,-2.4366 -1.98,-2.4367 -1.98,-2.2844 -2.1319,-2.1323 -2.1322,-1.9797 -2.2845,-1.98 -4.7213,-3.8075 v 0 l -0.7614,-0.6088 -0.3045,-0.6095 -0.3047,-0.6092 -0.1522,-0.7613 v 0 l 0.1522,-2.2845 0.1522,-2.1322 0.6095,-4.4164 v 0 l 0.1522,-0.7617 0.3044,-0.4569 0.6092,-0.1522 0.7617,-0.1522 v 0 l 2.2844,0.3044 h 2.4367 l 2.2844,-0.1522 2.2845,-0.457 v 0 l 1.3705,-0.3047 1.3708,-0.4567 1.2184,-0.6091 1.3708,-0.6092 1.2183,-0.7617 1.2184,-0.9136 1.0658,-0.9138 1.0664,-1.0662 1.0661,-1.2183 0.9136,-1.2183 0.7614,-1.2184 0.7617,-1.3708 0.6091,-1.5228 0.6092,-1.523 0.3044,-1.5231 0.3048,-1.6752 v 0 l 0.3047,-2.8936 v -2.8937 l -0.3047,-2.7413 -0.6092,-2.5889 -0.9136,-2.5892 -1.2186,-2.4369 -1.5228,-2.4367 -1.8278,-2.1319 v 0 l -1.3705,-1.3709 -1.3709,-1.2183 -1.5227,-1.0661 -1.6753,-0.9136 -1.6753,-0.9139 -1.6753,-0.6092 -1.6752,-0.6094 -1.8275,-0.6089 v 0 l -1.2186,-0.4569 -0.4567,-0.1523 -0.1522,-0.1525 -0.1525,-0.3044 -0.1523,-0.457 0.1523,-1.3705 v 0 l 2.7414,-26.1952 v 0 l 0.4569,-6.0917 0.1522,-2.8936 v -3.0461 -2.8936 l -0.1522,-3.0459 -0.3044,-3.0461 -0.6095,-2.8936 v 0 l -0.6092,-2.7414 -0.9138,-2.7413 -1.0659,-2.4367 -1.3708,-2.2844 -0.9136,-1.0662 -0.7617,-1.0658 -0.9139,-0.9139 -1.0658,-0.9139 -1.0661,-0.9136 -1.2186,-0.7616 -1.2181,-0.6092 -1.3708,-0.6092 v 0 l -3.1981,-1.2183 -3.1983,-0.9139 -3.3505,-0.4569 h -1.5231 l -1.6753,-0.1523 -1.5227,0.1523 -1.6756,0.1525 -1.5228,0.3044 -1.523,0.3047 -1.6753,0.457 -1.5228,0.6091 -1.6752,0.6089 -1.5231,0.7617 v 0 l -1.3708,0.9139 -1.2181,0.9136 -1.2186,0.9139 -0.9139,1.0661 -0.9136,1.2183 -0.7614,1.2184 -0.6094,1.2183 -0.457,1.3708 -0.4566,1.3706 -0.1523,1.3708 -0.1522,1.3706 0.1522,1.523 0.1523,1.5228 0.3044,1.3708 0.6092,1.5228 0.6094,1.523 v 0 l 0.6092,1.0662 0.7614,1.0661 0.7614,0.9136 0.9138,0.7616 0.9139,0.7614 0.9136,0.7617 1.2184,0.4567 1.0661,0.6091 1.2183,0.3047 1.2186,0.3045 1.2184,0.1525 1.2183,0.1522 1.3705,-0.1522 1.3709,-0.1525 1.2183,-0.1522 1.3706,-0.3045 v 0 l 1.6752,-0.6094 1.3709,-0.7614 1.3705,-0.9136 1.2184,-1.2186 v 0 l 0.7613,-0.9136 0.6095,-0.9139 0.4566,-1.0658 0.3048,-1.0664 0.3047,-1.0662 v -1.0658 -1.0661 l -0.1525,-1.0661 -0.1522,-1.0661 -0.457,-0.9139 -0.4569,-1.0658 -0.6092,-0.9139 -0.6091,-0.9139 -0.7614,-0.7614 -0.7617,-0.7614 -0.9136,-0.6091 v 0 l -1.8275,-1.0664 -1.8275,-0.7614 -1.98,-0.4567 -2.1322,-0.1525 v 0 l -2.5892,0.1525 h -1.3705 l -1.3706,-0.1525 v 0 l 1.98,-1.3705 1.9797,-1.0661 2.2845,-0.7614 2.2844,-0.457 2.4367,-0.3047 h 2.4366 l 2.437,0.3047 2.4366,0.457 2.437,0.9136 2.2841,1.0661 2.1323,1.3708 2.1322,1.5228 1.8275,1.98 1.523,2.1322 0.7614,1.2181 0.6095,1.2186 0.6088,1.3705 0.457,1.3709 v 0 l 0.7617,2.7411 0.6091,2.7413 0.3045,2.7414 0.3047,2.7414 0.1522,2.7414 -0.1522,2.8936 v 2.7414 l -0.3047,2.7414 v 0 l -0.6092,6.7008 -0.7614,6.7011 -1.6753,13.4022 v 0 l -0.3047,1.5231 v 0 0.7613 l -0.4569,0.457 -0.457,0.3044 -0.9136,0.1525 v 0 l -2.5891,0.1523 -2.5889,0.4569 -2.437,0.6089 -2.4366,0.7617 -2.4367,1.0661 -2.1322,1.2183 -2.1319,1.523 -2.1326,1.6753 v 0 l -1.8274,1.8275 -1.675,1.8275 -1.5231,1.98 -1.2183,2.132 -1.0661,2.2847 -0.7617,2.2844 -0.7614,2.4367 -0.4569,2.4366 v 0 l -0.3045,2.437 -0.1525,2.5889 v 2.4366 l 0.1525,2.437 0.457,2.4366 0.4569,2.2845 0.7611,2.4369 0.7617,2.2842 v 0 l 0.3047,1.0661 0.1522,0.9139 v 0.9139 l -0.3047,1.0658 v 0 l -5.3303,14.4683 v 0 l -4.7211,12.4883 -4.7214,12.4883 -4.7211,12.4884 -4.4166,12.6408 v 0 l -3.8075,11.5744 -1.8275,5.7872 -1.6753,5.7872 v 0 l -1.0661,3.6553 -1.0661,3.5028 v 0 l -0.3044,0.7616 -0.3048,0.7614 -0.9136,1.3706 v 0 l -0.4569,0.7614 -0.3047,0.7616 -0.1523,0.6092 v 0.6092 l 0.1523,0.6091 0.3047,0.6092 0.4569,0.7614 0.6089,0.6094 v 0 l 1.6756,1.3706 1.675,1.0661 1.8277,1.0661 1.8275,0.9136 v 0 l 2.7414,1.2186 2.5892,1.0658 2.7411,0.9139 2.7414,0.9139 5.635,1.6753 5.635,1.3706 v 0 h 0.4569 z m 27.2611,-91.9873 v 0 h 0.3045 l 0.1522,0.1522 v 0 l 4.1122,3.1983 3.9597,3.3506 1.98,1.6752 1.8275,1.8275 1.675,1.98 1.6756,1.9798 v 0 l 1.5227,1.98 1.3709,1.9797 1.3705,1.98 1.0661,2.1319 0.9139,2.2844 0.9136,2.2845 0.7617,2.2847 0.4569,2.4367 v 0 l 0.3045,2.1322 0.1522,2.1319 -0.1522,2.2845 -0.3045,1.0661 -0.3047,1.0664 v 0 l -0.4569,1.218 -0.6092,0.9139 -0.6092,0.9136 -0.9138,0.6095 -0.9137,0.3044 -0.9138,0.3047 h -1.2184 -1.3708 v 0 l -1.8275,-0.4569 -1.6753,-0.7617 -1.523,-0.9136 -1.5228,-1.2183 v 0 l -1.3708,-1.3706 -1.2184,-1.3708 -1.2183,-1.5231 -1.0658,-1.523 -1.0664,-1.675 -0.7614,-1.6753 -0.9136,-1.8278 -0.6095,-1.8275 v 0 l -1.0661,-3.198 -0.7614,-3.1983 -0.4566,-3.1984 -0.457,-3.3502 -0.1525,-3.1984 v -3.3505 l 0.1525,-3.1983 0.3045,-3.3506 v 0 -1.2183 l 0.1525,-0.457 z m -1.8275,-15.382 v 0 l -1.98,-1.6752 -1.9797,-1.8275 -1.8278,-1.6753 -1.6753,-1.98 -1.6749,-1.8275 -1.5231,-1.9797 -1.3705,-2.1322 -1.3709,-2.1323 v 0 l -0.4569,-1.0661 -0.457,-0.9136 v -0.6094 l 0.1522,-0.6089 0.3048,-0.457 0.3047,-0.6091 v 0 l 0.3044,-0.457 0.1523,-0.4569 v -0.3047 l -0.1523,-0.4567 -0.1522,-0.3047 -0.1522,-0.3045 -0.3047,-0.1525 -0.457,-0.1522 v 0 h -0.6091 l -0.6092,-0.1522 -0.3044,-0.3047 -0.3048,-0.457 -0.3047,-0.7614 -0.3044,-1.0661 v 0 l -0.1523,-2.7414 0.1523,-2.4366 0.3044,-2.5889 0.6095,-2.2844 0.9136,-2.2848 1.2183,-2.2844 1.3708,-1.9797 1.6753,-2.1322 v 0 l 1.5231,-1.3706 1.3705,-1.0661 1.6753,-1.0661 1.6753,-0.7617 1.6752,-0.6091 1.8275,-0.4567 1.98,-0.1522 1.9797,-0.1525 v 0 h 1.6753 l 0.457,0.1525 0.4566,0.3044 0.1525,0.3045 0.1523,0.6091 -0.1523,1.6756 v 0 l -2.2844,19.4938 v 0 l -0.9139,7.7672 v 0 l -0.1522,0.6089 -0.1525,0.3048 -0.4567,0.1522 -0.7614,-0.1522 v 0 l -1.3708,-0.6092 -1.3706,-0.9136 -1.0661,-1.0661 -1.0661,-1.2184 -0.9139,-1.3708 -0.6091,-1.5228 -0.457,-1.523 -0.1522,-1.5231 v 0 -1.2183 -1.2183 l 0.1522,-1.2186 0.3047,-1.2181 0.7614,-2.2844 1.0661,-2.2848 v 0 l 0.3045,-0.6088 0.3047,-0.6095 v -0.3044 -0.3048 -0.3044 l -0.3047,-0.3047 v 0 l -0.3045,-0.1522 h -0.3044 l -0.6092,0.3044 -1.0661,0.9139 v 0 l -0.3047,0.3047 v 0 l -1.0661,1.3706 -0.9136,1.3705 -0.7617,1.3708 -0.6091,1.5231 -0.4567,1.5228 -0.3047,1.523 -0.1523,1.6753 -0.1525,1.5228 0.1525,1.523 0.3045,1.6753 0.4569,1.5231 0.6092,1.5227 0.6092,1.3709 0.9139,1.3705 1.0661,1.3709 1.0658,1.2183 v 0 l 1.2186,1.0661 1.2183,0.9136 1.3706,0.7617 1.523,0.7614 v 0 l 0.457,0.3047 0.4569,0.3044 0.3045,0.457 v 0.7614 0 l -0.457,4.5691 -0.3044,2.2845 z m 9.1378,-47.9735 v 0 h 0.6091 v 0 l 1.6753,0.7617 1.5231,0.7614 1.3705,0.9136 1.3709,1.0661 1.218,1.2186 1.0664,1.2183 0.9136,1.5231 0.9139,1.3705 0.6092,1.5231 0.6091,1.6753 0.3045,1.6749 0.3047,1.6756 v 1.675 1.6753 l -0.3047,1.6752 -0.4567,1.8275 v 0 l -0.7617,2.1323 -1.0661,1.8277 -1.3705,1.675 -0.7617,0.7617 -0.7614,0.6092 -0.9136,0.6091 -0.9139,0.457 -1.0661,0.4569 -0.9136,0.3045 -1.0664,0.3047 -1.218,0.1522 h -1.0661 -1.2187 v 0 h -1.3705 l -0.3047,-0.1522 -0.3045,-0.1525 -0.1525,-0.3045 v -0.4569 -1.2183 0 l 2.437,-23.3014 v 0 l 0.3044,-2.8936 0.3047,-1.523 z" /><path
       id="path14"
       style="fill:#010101;fill-opacity:1;fill-rule:nonzero;stroke:none"
       d="m 161.6173,493.4656 v 0 l 0.3047,-6.7011 v 0 l 0.6089,-8.0716 0.1525,-4.112 0.1523,-4.1119 v 0 l -0.1523,-1.2184 -0.1525,-1.3708 -0.3044,-1.2183 -0.4567,-1.0661 -0.4569,-1.0659 -0.6095,-1.0664 -0.7614,-0.9136 -0.7613,-0.7613 -0.9139,-0.7617 -1.0661,-0.7614 -1.0659,-0.4569 -1.0664,-0.457 -1.2183,-0.4566 -1.2183,-0.1526 -1.2184,-0.1522 h -1.3705 v 0 l -1.5231,0.3048 -1.3708,0.4566 -1.0661,0.7614 -0.7614,1.0664 -0.6092,1.0658 -0.1522,1.3709 0.1522,1.3705 0.457,1.5231 v 0 l 0.4567,1.2183 0.7616,1.0661 0.7614,1.0661 0.9139,0.7614 1.0661,0.7614 1.0661,0.7617 1.2183,0.4569 1.2184,0.6089 v 0 l 1.523,0.3047 1.5231,0.1522 h 1.675 l 1.523,-0.4569 v 0 l 0.9139,-0.1522 h 0.3045 0.1522 l 0.1525,0.1522 0.1522,0.3047 0.1522,1.0661 v 0 3.9597 l -0.3044,3.9597 -0.6092,7.9195 v 0 l -0.6091,8.8333 v 0 0.7614 0.7614 0 l 0.3044,0.6091 0.3047,0.3048 h 0.6092 l 0.6092,-0.3048 v 0 l 0.1522,-0.1522 v 0 l 2.2844,-3.0458 2.2845,-3.0461 1.0661,-1.5228 0.9139,-1.6753 0.9136,-1.6752 0.6094,-1.8275 v 0 l 0.4567,-1.3709 0.3047,-1.2183 0.1522,-1.3708 v -1.5228 0 l -0.1522,-1.2183 -0.3047,-1.0661 -0.6092,-1.0662 -0.9139,-0.9138 v 0 l -0.1522,-0.1523 h -0.3044 -0.1525 l -0.3045,0.1523 v 0 l -0.1522,0.4569 0.1522,0.3047 v 0 l 0.6092,1.2184 0.4569,1.2183 0.1522,1.2183 -0.1522,1.0661 -0.3047,1.2184 -0.3044,1.0661 -0.6092,1.0661 -0.7617,1.0661 v 0 l -0.9136,1.3705 -0.9139,1.2186 -1.3705,1.2181 z" /><path
       id="path16"
       style="fill:#010101;fill-opacity:1;fill-rule:nonzero;stroke:none"
       d="m 209.7431,428.8921 v 0 l 0.4569,1.0658 0.3045,0.9139 0.1525,1.0658 v 0.9139 l -0.1525,0.9139 -0.3045,0.9136 -0.6091,0.9139 -0.6095,0.9139 v 0 l -0.7611,0.9136 -0.6094,0.9139 -1.2184,2.1322 v 0 l -0.9136,-1.98 -0.6091,-1.9797 -1.0664,-3.9597 v 0 l -0.6092,-2.2845 -0.7614,-2.2844 -0.9139,-2.1322 -1.218,-2.1322 v 0 l -0.6095,-1.0661 -0.7614,-0.9137 -0.9138,-0.9138 -0.9136,-0.6092 -1.0662,-0.6092 -1.0661,-0.4569 -1.0661,-0.3047 -1.2183,-0.3045 v 0 l -1.2183,-0.1522 h -1.2187 -1.218 l -1.2186,0.3044 -1.0661,0.3048 -1.0659,0.3044 -1.0663,0.6095 -1.0659,0.6091 v 0 l -1.0661,0.9136 -0.6091,1.0661 -0.457,1.0661 -0.1525,1.0662 v 1.2183 l 0.4569,1.0661 0.6095,1.0661 0.9136,1.0658 v 0 l 0.7614,0.6095 0.9139,0.6091 0.7616,0.457 1.0659,0.3044 1.98,0.6092 1.9797,0.1522 h 1.0661 l 1.0661,-0.1522 0.9139,-0.1522 1.0661,-0.3045 0.9136,-0.4569 0.9139,-0.6095 0.7614,-0.6091 0.9139,-0.7614 v 0 l 1.2183,-1.2183 v 0 l 0.7617,1.2183 0.6089,1.3705 0.9139,2.7414 v 0 l 4.8736,17.0575 v 0 l 0.4566,1.3706 0.3047,0.6091 0.6092,0.6092 v 0 l 0.457,0.3047 h 0.1522 0.3044 v 0 l 0.3047,-0.3047 v -0.457 0 -1.2183 l -0.1522,-1.0661 v 0 l -0.4569,-2.5889 -0.1522,-2.4369 v 0 l 0.1522,-1.6753 0.3044,-1.6753 0.6095,-1.5227 0.9136,-1.3709 v 0 l 1.0661,-1.8275 0.6091,-0.9139 0.3048,-1.0661 v 0 l 0.1522,-0.9136 v -1.0661 l -0.1522,-0.7617 -0.3048,-0.9136 -0.3044,-0.9139 -0.4569,-0.7613 -1.0661,-1.5228 v 0 l -0.3045,0.1522 -0.1525,0.3044 z" /><path
       id="path18"
       style="fill:#010101;fill-opacity:1;fill-rule:nonzero;stroke:none"
       d="m 141.514,414.2716 v 0 -2.437 0 -1.3705 l -0.1522,-1.3706 -0.3044,-1.2186 -0.457,-1.2183 -0.6092,-1.0661 -0.7613,-0.9139 -0.9139,-0.9136 -0.9139,-0.9139 -0.9136,-0.7614 -1.0661,-0.6092 -1.0661,-0.4569 -1.2184,-0.457 -1.0661,-0.3044 -1.2183,-0.1525 -1.0661,-0.1522 -1.0661,0.1522 v 0 l -1.3709,0.1525 -1.218,0.4569 -1.0664,0.7614 -0.7614,0.7614 -0.4569,1.0661 -0.3045,1.0661 v 1.3706 l 0.3045,1.3708 v 0 l 0.3047,0.9136 0.4569,0.9139 0.6092,0.7617 0.6092,0.7614 1.5227,1.523 1.6756,1.2181 1.8275,0.9139 1.9797,0.6094 1.0661,0.1522 h 0.9136 1.0661 l 0.9139,-0.1522 v 0 l 1.5231,-0.1525 h 0.4569 l 0.1522,0.1525 0.3048,0.3044 v 0.4567 1.3708 0 l -0.1525,3.8075 -0.3045,3.655 -0.7617,7.4625 v 0 l -0.4569,6.8536 v 0 0.9136 l 0.1525,0.9139 v 0 l 0.1522,0.3045 0.1522,0.1525 0.6092,0.1522 v 0 l 0.457,-0.1522 0.3047,-0.3048 v 0 l 0.3044,-0.4569 v -0.4567 l 0.1525,-0.9139 v 0 l 1.8275,-24.5196 v 0 z" /><path
       id="path20"
       style="fill:#5b5b5b;fill-opacity:1;fill-rule:nonzero;stroke:none"
       d="m 209.7431,428.8921 v 0 l 0.1522,-0.6095 0.1525,-0.3044 0.3045,-0.1522 v 0 l -0.3045,-0.6095 -0.3047,-0.4569 -0.9139,-1.0658 v 0 l -0.4567,-0.457 -0.3047,-0.1522 -0.4569,-0.1525 v 0 l 0.3047,1.0661 0.6092,1.0661 0.6091,0.9139 z" /><path
       id="path22"
       style="fill:none;stroke:#000000;stroke-width:1.41729999;stroke-linecap:round;stroke-linejoin:round;stroke-miterlimit:22.92558479;stroke-dasharray:none;stroke-opacity:1"
       d="m 219.0847,387.6772 c 58.295,-5.1375 102.6195,-2.5696 149.5244,0 106.8109,8.4713 201.7573,9.1687 317.5291,0 38.3014,-3.3202 64.8819,-2.7006 94.0827,0" /><path
       id="path24"
       style="fill:none;stroke:#000000;stroke-width:1.41729999;stroke-linecap:round;stroke-linejoin:round;stroke-miterlimit:22.92558479;stroke-dasharray:none;stroke-opacity:1"
       d="m 223.7321,361.8465 c 58.295,-5.1375 102.6195,-2.5696 149.5244,0 106.8109,8.4713 201.7573,9.1689 317.5291,0 38.3014,-3.3202 64.8819,-2.7006 94.0827,0" /><path
       id="path26"
       style="fill:none;stroke:#000000;stroke-width:1.41729999;stroke-linecap:round;stroke-linejoin:round;stroke-miterlimit:22.92558479;stroke-dasharray:none;stroke-opacity:1"
       d="m 204.8043,301.9949 c 58.295,-5.1378 102.6195,-2.5699 149.5244,0 106.8109,8.4711 201.7573,9.1687 317.5294,0 38.3011,-3.3205 64.8816,-2.7005 94.0824,0" /><path
       id="path28"
       style="fill:none;stroke:#000000;stroke-width:1.41729999;stroke-linecap:round;stroke-linejoin:round;stroke-miterlimit:22.92558479;stroke-dasharray:none;stroke-opacity:1"
       d="m 209.0639,271.7541 c 58.2953,-5.1378 102.6196,-2.5699 149.5244,0 106.8112,8.471 201.7577,9.1686 317.5294,0 38.3012,-3.3205 64.8816,-2.7006 94.0825,0" /><text
       id="text32"
       style="font-variant:normal;font-weight:bold;font-size:88.80799866px;font-family:TimesNewRomanPS;-inkscape-font-specification:TimesNewRomanPS-BoldMT;writing-mode:lr-tb;fill:#000000;fill-opacity:1;fill-rule:nonzero;stroke:none"
       transform="matrix(1,0,0,-1,235.6311,313.7584)"><tspan
         id="tspan30"
         y="0"
         x="0">T</tspan></text>
<text
       id="text36"
       style="font-variant:normal;font-weight:bold;font-size:79.15691376px;font-family:TimesNewRomanPS;-inkscape-font-specification:TimesNewRomanPS-BoldMT;writing-mode:lr-tb;fill:#000000;fill-opacity:1;fill-rule:nonzero;stroke:none"
       transform="matrix(0.9938,0.1114,0.1114,-0.9938,292.5057,292.4685)"><tspan
         id="tspan34"
         y="0"
         x="0">R</tspan></text>
<text
       id="text40"
       style="font-variant:normal;font-weight:bold;font-size:79.15439606px;font-family:TimesNewRomanPS;-inkscape-font-specification:TimesNewRomanPS-BoldMT;writing-mode:lr-tb;fill:#000000;fill-opacity:1;fill-rule:nonzero;stroke:none"
       transform="matrix(0.9992,-0.0398,-0.0398,-0.9992,522.1843,307.9015)"><tspan
         id="tspan38"
         y="0"
         x="0">L</tspan></text>
<text
       id="text44"
       style="font-variant:normal;font-weight:bold;font-size:79.15499878px;font-family:TimesNewRomanPS;-inkscape-font-specification:TimesNewRomanPS-BoldMT;writing-mode:lr-tb;fill:#000000;fill-opacity:1;fill-rule:nonzero;stroke:none"
       transform="matrix(1,0,0,-1,461.3372,321.7181)"><tspan
         id="tspan42"
         y="0"
         x="0">A</tspan></text>
<text
       id="text48"
       style="font-variant:normal;font-weight:bold;font-size:79.15499878px;font-family:TimesNewRomanPS;-inkscape-font-specification:TimesNewRomanPS-BoldMT;writing-mode:lr-tb;fill:#000000;fill-opacity:1;fill-rule:nonzero;stroke:none"
       transform="matrix(1,0,0,-1,689.756,309.2686)"><tspan
         id="tspan46"
         y="0"
         x="0">A</tspan></text>
<text
       id="text52"
       style="font-variant:normal;font-weight:bold;font-size:79.15499878px;font-family:TimesNewRomanPS;-inkscape-font-specification:TimesNewRomanPS-BoldMT;writing-mode:lr-tb;fill:#000000;fill-opacity:1;fill-rule:nonzero;stroke:none"
       transform="matrix(1,0,0,-1,578.5611,322.0781)"><tspan
         id="tspan50"
         y="0"
         x="0">A</tspan></text>
<text
       id="text56"
       style="font-variant:normal;font-weight:bold;font-size:79.15762329px;font-family:TimesNewRomanPS;-inkscape-font-specification:TimesNewRomanPS-BoldMT;writing-mode:lr-tb;fill:#000000;fill-opacity:1;fill-rule:nonzero;stroke:none"
       transform="matrix(0.9901,-0.1406,-0.1406,-0.9901,635.7064,296.7627)"><tspan
         id="tspan54"
         y="0"
         x="0">L</tspan></text>
<text
       id="text60"
       style="font-variant:normal;font-weight:bold;font-size:79.15499878px;font-family:TimesNewRomanPS;-inkscape-font-specification:TimesNewRomanPS-BoldMT;writing-mode:lr-tb;fill:#000000;fill-opacity:1;fill-rule:nonzero;stroke:none"
       transform="matrix(1,0,0,-1,345.6164,311.8569)"><tspan
         id="tspan58"
         y="0"
         x="0">A</tspan></text>
<text
       id="text64"
       style="font-variant:normal;font-weight:bold;font-size:79.15311432px;font-family:TimesNewRomanPS;-inkscape-font-specification:TimesNewRomanPS-BoldMT;writing-mode:lr-tb;fill:#2b2b2a;fill-opacity:1;fill-rule:nonzero;stroke:none"
       transform="matrix(0.9997,-0.0235,-0.0235,-0.9997,406.1452,296.8804)"><tspan
         id="tspan62"
         y="0"
         x="0">V</tspan></text>
<path
       id="path66"
       style="fill:none;stroke:#000000;stroke-width:1.41729999;stroke-linecap:round;stroke-linejoin:round;stroke-miterlimit:22.92558479;stroke-dasharray:none;stroke-opacity:1"
       d="m 227.2218,328.3489 c 58.2951,-5.1378 102.6196,-2.5699 149.5244,0 106.8109,8.4711 201.7574,9.1687 317.5294,0 38.3012,-3.3205 64.8816,-2.7006 94.0824,0" /><text
       id="text70"
       style="font-variant:normal;font-weight:bold;font-size:24px;font-family:TimesNewRomanPS;-inkscape-font-specification:TimesNewRomanPS-BoldMT;writing-mode:lr-tb;fill:#000000;fill-opacity:1;fill-rule:nonzero;stroke:none"
       transform="matrix(1,0,0,-1,433.1205,232.9166)"><tspan
         id="tspan68"
         y="0"
         x="0 17.327999 24 34.655998 40.2202 54.024101 66.024101 79.368103 90.024101 100.6801 107.3521 119.3521 125.3521 145.3441 152.0161 160.0081 166.0081 182.0161 194.0161 204.6721 218.0161 226.0081 234.00011 251.32809 264.67209 276.67209 287.32809 299.32809 312.67209 320.66409 331.3201">Die Taperia mit Event-Charakter</tspan></text>
</g></svg>